<svg xmlns="http://www.w3.org/2000/svg" viewBox="0 0 702.6 566.93"><defs><style>.st1{fill:#fff;opacity:.96;stroke:#1d1d1b;stroke-linecap:round;stroke-linejoin:round}.st3{fill:#232c3b}.st5{fill:#e2e2e2}.st6{font-family:&apos;AniMeVisionMB_EN&apos;,&apos;AniMe Vision - MB_EN&apos;;font-size:130px}.st7{fill:#e7e7e7}.st8{fill:#1e2835}.st9{display:none}.st10{fill:#1d1d1b}.st11{fill:#456a84}.st12{fill:#10161f}.st1{stroke-width:40px}.st13{fill:#f6f7f7}</style></defs><g id="Calque_4"><path d="m337.65 12.55-187.96 110.1c-1.05.62-1.7 1.74-1.7 2.96v125.5c0 2.61 2.79 4.26 5.08 3.01l187.96-102.95a3.43 3.43 0 0 0 1.78-3.01V15.51c0-2.65-2.88-4.3-5.16-2.96z" style="fill:#1e2835"/><path class="st7" d="m364.95 12.55 187.96 110.1c1.05.62 1.7 1.74 1.7 2.96v125.5c0 2.61-2.79 4.26-5.08 3.01L361.57 151.17a3.43 3.43 0 0 1-1.78-3.01V15.51c0-2.65 2.88-4.3 5.16-2.96z"/><path d="m337.65 550.56-187.96-110.1a3.438 3.438 0 0 1-1.7-2.96V312c0-2.61 2.79-4.26 5.08-3.01l187.96 102.95c1.1.6 1.78 1.76 1.78 3.01v132.64c0 2.65-2.88 4.3-5.16 2.96z" style="fill:#3a86ff"/><path class="st7" d="m364.95 550.56 187.96-110.1c1.05-.62 1.7-1.74 1.7-2.96V312c0-2.61-2.79-4.26-5.08-3.01L361.57 411.94a3.43 3.43 0 0 0-1.78 3.01v132.64c0 2.65 2.88 4.3 5.16 2.96zM472.47 236.71l-119.59-65.12a3.431 3.431 0 0 0-3.29 0l-84.54 46.3c-2.27 1.24-2.4 4.45-.24 5.87l113 74.66c1.11.73 2.55.76 3.68.06l91.13-55.84c2.25-1.38 2.17-4.68-.15-5.94z"/></g></svg>