<?xml version="1.0" encoding="UTF-8"?>
<svg xmlns="http://www.w3.org/2000/svg" version="1.1" viewBox="0 0 702.6 566.93">
  <!-- Generator: Adobe Illustrator 29.1.0, SVG Export Plug-In . SVG Version: 2.1.0 Build 142)  -->
  <defs>
    <style>
      .st0 {
        stroke-width: 60px;
      }

      .st0, .st1 {
        fill: #fff;
        opacity: .96;
        stroke: #1d1d1b;
        stroke-linecap: round;
        stroke-linejoin: round;
      }

      .st2 {
        fill: #1e2835;
      }

      .st3 {
        fill: #232c3b;
      }

      .st4 {
        fill: #3a86ff;
      }

      .st5 {
        fill: #e2e2e2;
      }

      .st6 {
        font-family: 'AniMeVisionMB_EN', 'AniMe Vision - MB_EN';
        font-size: 130px;
      }

      .st7 {
        fill: #e7e7e7;
      }

      .st8 {
        fill: #1e2835;
      }

      .st9 {
        display: none;
      }

      .st10 {
        fill: #1d1d1b;
      }

      .st11 {
        fill: #456a84;
      }

      .st12 {
        fill: #10161f;
      }

      .st1 {
        stroke-width: 40px;
      }

      .st13 {
        fill: #f6f7f7;
      }
    </style>
  </defs>
  <g id="Calque_1" class="st9">
    <polyline class="st0" points="161.65 411.12 34 283.46 161.65 155.81"/>
  </g>
  <g id="Calque_2" class="st9">
    <g>
      <rect class="st10" y="377.95" width="64.1" height="64.1"/>
      <rect class="st10" x="256.39" y="377.95" width="64.1" height="64.1"/>
      <rect class="st10" y="313.85" width="64.1" height="64.1"/>
      <rect class="st10" x="192.3" y="313.85" width="64.1" height="64.1"/>
      <rect class="st10" x="256.39" y="313.85" width="64.1" height="64.1"/>
      <rect class="st10" y="249.75" width="64.1" height="64.1"/>
      <rect class="st10" x="256.39" y="249.75" width="64.1" height="64.1"/>
      <rect class="st10" x="128.2" y="249.75" width="64.1" height="64.1"/>
      <rect class="st10" y="188.98" width="64.1" height="64.1"/>
      <rect class="st10" x="256.39" y="188.98" width="64.1" height="64.1"/>
      <rect class="st10" x="64.1" y="188.98" width="64.1" height="64.1"/>
      <rect class="st10" y="124.88" width="64.1" height="64.1"/>
      <rect class="st10" x="256.39" y="124.88" width="64.1" height="64.1"/>
    </g>
    <text class="st6" transform="translate(331.19 442)"><tspan x="0" y="0">ART</tspan></text>
    <text class="st6" transform="translate(331.19 215.88)"><tspan x="0" y="0">AV</tspan></text>
  </g>
  <g id="Calque_3" class="st9">
    <path d="M654.72,51.46c-1.4-8.12-145.91-21.71-274.78,39.88-92.94,44.42-148.51,113.99-142.57,119.14,5.26,4.56,56.93-42.83,152.92-86.24,145.08-65.61,265.71-65.3,264.42-72.78Z"/>
    <path d="M258.13,198.07c-14.89-14.85-40.14-18.03-53.76-8.08-17.29,12.64-2.79,36.94-22.59,72.22-11.76,20.95-26.65,29.81-23.96,33.79,1.21,1.78,5.97,2.59,50.28-16.78,53.19-23.26,59.01-29.96,61.74-37.91,5.02-14.61-.74-32.3-11.72-43.25ZM240.27,246.36c-1.26,3.67-3.95,6.77-28.52,17.51-20.47,8.95-22.67,8.58-23.23,7.75-1.24-1.84,5.64-5.93,11.07-15.61,9.15-16.3,2.45-27.52,10.44-33.36,6.29-4.6,17.96-3.13,24.83,3.73,5.07,5.06,7.73,13.23,5.41,19.98Z"/>
    <polyline class="st1" points="148.66 411.12 21.01 283.46 148.66 155.81"/>
    <polyline class="st1" points="565.66 155.81 693.31 283.46 565.66 411.12"/>
    <rect class="st10" x="301.81" y="397.57" width="34.35" height="34.35"/>
    <rect class="st10" x="252.32" y="431.92" width="49.49" height="49.49"/>
    <rect class="st10" x="345.46" y="431.92" width="49.49" height="49.49"/>
    <rect class="st10" x="336.16" y="373.39" width="24.18" height="24.18"/>
    <rect class="st10" x="394.95" y="338.78" width="49.49" height="49.49"/>
    <rect class="st10" x="394.95" y="431.92" width="49.49" height="49.49"/>
  </g>
  <g id="Calque_4">
    <g class="st9">
      <g>
        <path class="st8" d="M0,48.28c7.92-2.45,11.85,7.09,16.19,8.09,5.78,1.33,13.39-7.18,16.67,6.02,1.34,5.39-2.38,11.88-1.72,18.39.93,9.17,4.41,18.06,5.79,27.12-21.15-4.45-8.52,18.17-5.65,31.25,9.02,2.71,4.35-9.88,9.94-11.34,6.48-1.69,9.6,12.27,14.63,13.93,7.17,2.36,19.46-9.59,23.65-5.41,1.04,1.04.32,8.29-2.81,10.11-4.56,2.64-11.81-6.38-14.3,5.55s10.3,6.47,11.61,11.77c1.83,7.38-3.2,16.2-2.98,23.66l11.32-2.82c2.43,8.67-4.96,12.35-5.65,19.85,13.12-1,20.05-6.3,17.04-19.86,4.19-.29,8.14,1.95,12.31,1.76,28.67-1.29,15.44-34.43,24.79-41.45,1.45-1.09,14.09,5.1,16.8,2.72,1.71-1.5-3.64-9.55,4.34-8.53,5.53.71,12.47,9.69,16.92,8.59,3.51-.86,3.25-8.8,5.86-8.65.81.05,14.41,5.86,14.95,6.47,1.92,2.19.05,5.9.58,7.84-12.11,1.09-20.67,2.82-28.35,12.83-5.2,6.77-19.92,48.88-19.12,56.37.38,3.56,4.3,7.32,4.73,11.9,1.74,18.28-4.77,32.48,16.12,43.48,19.58,10.31,14.47-3.81,21.05-9.44,2.36-2.02,8.02-1.8,10.11-4.26,2.87-3.4-1.67-7.14-1.7-8.64,3.66.36,7.84-.53,11.36,0,14.87,2.25,11.77,10.64,20.08,18.27,3.69,3.39,48.05,35.81,50.96,37.06,1.43.62,23,7.05,24.28,7.19,1.75.19,31-7.16,34.11-8.34,7.33-2.78,16.99-12.57,23.92-17.26.64.21,2.14.11,2.84,0-3.42,22.84,8.77,13.36,16.42,17.67,4.52,2.54,17.05,25.18,11.79,30.44-4.95-2.76-24.93,12.5-22.58,1.55,1.33-6.21,8.9-12.2,5.73-21.25-21.07-4.09-18.81,9.25-26.8,17.21-3.44,3.43-9.97,3.72-12.17,6.31-1.86,2.18-1.33,8.83-5.08,10.52-5.31,2.4-3.9-4.5-7.2-6.8-5.79-4.05-13.82-5.24-18.36-13.04-9.82-2.19-3.69,17.16-11.28,14.16-5.02-1.99-9.9-13.01-14.25-17-13.56-12.46-20.76-10.57-37.43-9.73-4.4.22-8.72-4.07-3.73,4.04-2.77-1.6-12-3.39-17.65-6.5-12.56-6.92-10.89-11.15-27.79-13.38-13.13-1.73-22.89,4.89-31.31,15.53-11.01,13.9-13.15,30.77-14.25,48.25-1.15,18.42-.52,62.82,11.38,76.88,5.07,5.99,10.83,5.56,13.35,7.96,20.22,19.33,16.11,13.36,37.59,26.31,33.52,20.21,79.39,63.32,120.32,42.99,3.76-1.87,3.91-5.31,5.97-6.84,5.18-3.84,11.29-.46,10.29-15.12.63.4,1.99-.36,2.84,0,10.74,4.53,9.48,1.03,17.04,0,3.49-.47,7.79-1.88,11.36-2.84,20.79-5.56,28.06-12.91,47.22-22.36,5.58-2.75,20.18-5.33,20.97-6.08.41-.39-4.32-8.04-.04-11.32,20.59-11.85,37.87-22.93,59.64-34.08-1.59,9.33-6.89,20.34-17.02,14.18,4.87,11.48-5.71,14.89-5.76,15.84-.19,3.56,6.11,17.63,2.73,20.95-3.94,3.88-34.8.77-22.56,22.84-25.31-2.55-13.03,3.34-17.64,10.75-.95,1.52-5.4,1.77-6.56,3.46-3.84,5.65,5.29,23.24,4.31,31.23-1.39,1.38-16.81-2.85-18.65-5.55-3.22-4.71,6.58-24.74-8.18-19.88-10.4,3.43-2.98,25.52-4.69,27.95-2.36,3.37-29.47,7.44-28.1,20.2H0V201.62c11.26-.6,13.41-14.41,0-11.36v-48.28c13.01,2.81,12.5-11.5,0-8.52v-22.72c28.68,2.36,25.92-25.45,0-28.4v-34.08ZM14.18,71.01h-5.65v8.49h5.65v-8.49ZM42.61,164.69c11.65.25,11.65-14.42,0-14.17v14.17ZM17.02,159.04c-3.1-3.1-8.75,2.55-5.65,5.65s8.75-2.55,5.65-5.65ZM59.62,164.72h-5.65v8.49h5.65v-8.49ZM42.58,187.41c4.57-4.93-9.09-18.75-14.17-14.17-3.24,2.92,11.17,17.41,14.17,14.17ZM65.3,190.28c-6.5-6.65-44.07,25.63-18.45,25.8,15.44.1,7.47-14.04,10.25-17.12,1.9-2.11,11.28,4.39,8.19-8.67Z"/>
        <path class="st3" d="M0,110.75v-28.4c25.92,2.95,28.68,30.76,0,28.4Z"/>
        <path class="st3" d="M0,190.27c13.41-3.05,11.26,10.76,0,11.36v-11.36Z"/>
        <path class="st3" d="M0,133.47c12.5-2.98,13.01,11.33,0,8.52v-8.52Z"/>
        <path class="st13" d="M522.52,303.86v110.75c-10.34,1.27-10.79,6.86-14.2,8.52-1.95.95-3.76,1.85-5.68,2.84-21.76,11.15-39.04,22.23-59.64,34.08-22.67,13.04-47.49,23.26-68.15,39.76-3.57.96-7.87,2.36-11.36,2.84v-105.07c44.93-29.09,91.27-61.97,140.08-85.67,6.05-2.94,12.16-7.24,18.95-8.04Z"/>
        <path class="st11" d="M235.7,326.57c31.4,18.07,81.51,47.42,110.75,68.15v107.91c-.85-.36-2.21.4-2.84,0-2.02-1.29-4.95-7.7-10.41-10.89-10.42-6.08-39.59-23.13-49.22-26.03-1.2-4.08-4.46-5.44-8.52-5.68-2.05-2.09-46.01-26.57-51.12-28.4.96-5.42-.28-6.61-5.68-5.68-1.35-1.66-6.35-1.92-8.52-2.84,1.74-7.41-5.55-7.01-11.36-8.52-.31-.35-3.89.82-5.03-.51-2.67-3.11-.54-70.72-.65-81.85-.06-6.22,2.09-16.01-2.84-19.88.45-1.46-.3-3.9,0-5.68,16.9,2.23,15.23,6.46,27.79,13.38,5.65,3.11,14.87,4.91,17.65,6.5Z"/>
        <path class="st5" d="M479.92,130.63c-7.99,4.34-.5,5.4,2.44,7.39,10.39,7.02,21.07,13.6,31.76,20.06,2.37,14.75-2.44,31.64-2.68,45.27-.15,8.74,6.59,27.76,1.28,35.4-2.53,3.64-11.99-.41-10.08,8.31-4.37-2.59-10.23-3.43-15.11-6.19-40.28-22.8-80.21-46.5-119.82-70.44-2.54-31.14-1.37-62.57-1.37-93.76v-11.36c.89.23,1.95-.23,2.84,0,34.89,9.14,80.28,45.92,110.75,65.31Z"/>
        <path class="st5" d="M335.09,187.43l40.62,20.44c21.52,11.23,40.79,27.2,61.61,39.2l-17.04,14.2c-6.8,1.29-24.95,5.94-25.56,14.2h-2.84c-14.11-.62-10.05,9.77-11.41,11.35-.61.71-5.58-2.07-8.5-1.13-3.4,1.09-7.07,6.14-11.33,6.82-.7.11-2.2.21-2.84,0-10.92-3.51-35.66-23.43-47.46-30.64-11.05-6.75-39.65-17.7-45.39-26.99-1.89-3.05-.31-6.19-.86-7.68,5.87.78,9.32-2.03,13.98-4.46,15.21-7.93,45.76-24.51,57.02-35.3Z"/>
        <path class="st12" d="M366.33,76.67c0,31.19-1.16,62.62,1.37,93.76,39.61,23.94,79.55,47.64,119.82,70.44,4.88,2.76,10.74,3.6,15.11,6.19,2.34,1.38,5.19,7.02,8.52,8.52-3.37,1.91-2.04,6.78-3.27,7.96-2.73,2.6-14.08-1.21-16.46.85-2.03,1.76,3.57,8.95-4.41,8.28-11.2-.94-29.84-18.09-39.18-23.47-3.61-2.08-9.14-1.34-10.51-2.14-20.82-12-40.09-27.96-61.61-39.2l-40.62-20.44c7.49-7.18,9.7-8.55,11.36-19.88.13-.92-.08-1.9,0-2.84,2.3-26.53-.35-57.91,0-85.19l19.88-2.84Z"/>
        <path class="st12" d="M261.26,224.34c2.64-.39,2.26,1.29,2.84,2.84s-1.02,4.63.86,7.68c5.75,9.29,34.35,20.25,45.39,26.99,11.79,7.2,36.53,27.13,47.46,30.64-6.92,4.69-16.59,14.48-23.92,17.26-3.11,1.18-32.36,8.53-34.11,8.34-1.27-.14-22.84-6.57-24.28-7.19-2.91-1.25-47.27-33.67-50.96-37.06-8.31-7.62-5.21-16.02-20.08-18.27l35.89-25.16,20.91-6.08Z"/>
        <path class="st12" d="M190.27,153.35c.78,2.88,2.6,4.09,3.05,9.6,2.35,29-.83,62.82-.21,92.63.03,1.5,4.57,5.24,1.7,8.64-2.08,2.46-7.74,2.24-10.11,4.26-6.58,5.63-1.47,19.75-21.05,9.44-20.89-11-14.38-25.19-16.12-43.48-.44-4.58-4.36-8.34-4.73-11.9-.8-7.49,13.92-49.6,19.12-56.37,7.68-10,16.24-11.73,28.35-12.83Z"/>
        <path class="st12" d="M363.49,397.57v105.07c-7.56,1.03-6.3,4.53-17.04,0v-93.71c9.37,2.07,4.21-5.57,5.68-8.52,1.24-2.49,10.16-2.07,11.36-2.84Z"/>
        <path class="st8" d="M437.33,247.06c1.38.79,6.9.06,10.51,2.14,9.33,5.37,27.97,22.52,39.18,23.47,7.98.67,2.38-6.52,4.41-8.28,2.38-2.06,13.73,1.76,16.46-.85,1.23-1.17-.09-6.05,3.27-7.96.57-.32,1.82.18,2.84,0l2.84,8.52c-.43.98,1.05,4.25-.34,5.24-2.13,1.51-8.36-.41-11.76,1.02-4.1,1.73-6.03,6.09-9.85,7.27-18.33,5.65-33.67,1.56-49.84-7.76-10.72-6.18-1.2-13.1-24.76-8.62l17.04-14.2Z"/>
        <path class="st8" d="M346.45,167.55c-1.66,11.33-3.87,12.7-11.36,19.88-11.26,10.79-41.81,27.36-57.02,35.3-4.65,2.43-8.1,5.24-13.98,4.46-.58-1.55-.2-3.23-2.84-2.84-1.8-9.06,1-6.83,5.53-10.01,17.35-12.16,38.49-19.16,55.6-29.67,10.18-6.25,13.24-17.01,24.06-17.12Z"/>
        <path class="st13" d="M514,147.67c7.18,6.9,5.26,14.08,5.68,22.72,1.1,22.54.67,48.32,0,70.99-.03.95.04,1.89,0,2.84-.15,3.74.4,7.67,0,11.36-1.83.21-3.94-.31-5.68,0-1.02.18-2.27-.32-2.84,0-3.33-1.5-6.18-7.13-8.52-8.52-1.91-8.73,7.55-4.67,10.08-8.31,5.31-7.64-1.44-26.66-1.28-35.4.24-13.63,5.05-30.52,2.68-45.27-10.69-6.45-21.37-13.04-31.76-20.06-2.94-1.99-10.43-3.05-2.44-7.39,11.28,7.18,21.39,9.03,34.08,17.04Z"/>
        <path class="st8" d="M278.28,90.89c4.46,4.19-14.44,16.54-17.19,18.27l-53.77,27.13c3.3-14.31,20.19-17.03,29.19-22.6,2.38-1.47,3-5.71,5.06-6.88,3.95-2.24,35.25-17.29,36.71-15.92Z"/>
        <path class="st11" d="M346.45,79.51c-.35,27.29,2.3,58.66,0,85.19-4.71-2.95-2.83-10.77-2.89-15.58-.23-18.92-.2-37.95,0-56.88.05-4.8-1.81-12.63,2.89-15.58-.02.95.01,1.89,0,2.84Z"/>
        <path class="st8" d="M346.45,76.67c.13-6.6-.12-13.26.03-19.86l2.82,11.37c14.91,1.66,9.09-1.31,11.35-5.7,1.9.7,3.85,2.36,5.68,2.84v11.36l-19.88,2.84c.01-.95-.02-1.89,0-2.84Z"/>
        <path class="st8" d="M514,147.67c2.26,1.43,7.27-3.88,10.05,5.45,2.1,7.03,4.37,20.05-4.38,17.27-.42-8.64,1.5-15.82-5.68-22.72Z"/>
        <path class="st8" d="M522.52,414.61c2.76-.34,5.73.17,8.5.03-4.13,8.33-12.3,9.99-22.7,8.49,3.41-1.66,3.86-7.25,14.2-8.52Z"/>
        <path class="st8" d="M522.52,303.86c13.94-1.65,14.44,13.2,0,11.36v-11.36Z"/>
        <path class="st8" d="M403.23,352.12c-8.59,1.28-12.62-2.46-11.33-11.33,5.26-1.95,13.95,8.9,11.33,11.33Z"/>
        <path class="st8" d="M352.13,400.41c-1.47,2.95,3.69,10.59-5.68,8.52v-14.2c2.32,1.64,4.82,2.58,5.68,5.68Z"/>
        <path class="st11" d="M360.65,62.48c2.88-5.62,10.69-4.45,8.52,2.84-.89-.23-1.95.23-2.84,0-1.83-.48-3.78-2.14-5.68-2.84Z"/>
        <path class="st11" d="M519.68,255.58c-.54,4.98-1.3,4.98-2.84,8.52l-2.84-8.52c1.74-.31,3.85.21,5.68,0Z"/>
        <path class="st8" d="M394.73,275.46c-.33,4.53,8.67,6.54-4.29,11.3l1.45-11.3h2.84Z"/>
        <path class="st8" d="M479.91,511.18c3.1,3.1-2.55,8.75-5.65,5.65-3.1-3.1,2.55-8.75,5.65-5.65Z"/>
        <path class="st8" d="M519.68,241.38c8.04-1.14,8.04,3.98,0,2.84.04-.94-.03-1.89,0-2.84Z"/>
        <path class="st12" d="M190.27,306.7c-.3,1.77.45,4.22,0,5.68-2.24,7.24-8.15,21.75,2.84,19.88.11,11.13-2.02,78.74.65,81.85,1.14,1.33,4.73.15,5.03.51.37.43-.67,4.21,1.93,5.83,2.97,1.85,6.7,1.53,9.43,2.69,2.17.92,7.17,1.18,8.52,2.84,2.77,3.41-4.66,1.98,5.68,5.68,5.1,1.83,49.07,26.31,51.12,28.4.63.64-.72,5.04,0,5.66,1.02.87,6.36-.63,8.51.02,9.64,2.9,38.8,19.95,49.22,26.03,5.47,3.19,8.39,9.6,10.41,10.89,1,14.66-5.11,11.28-10.29,15.12-2.06,1.53-2.21,4.97-5.97,6.84-40.93,20.34-86.8-22.78-120.32-42.99-21.48-12.95-17.37-6.98-37.59-26.31-2.51-2.4-8.28-1.96-13.35-7.96-11.9-14.06-12.53-58.46-11.38-76.88,1.09-17.49,3.24-34.35,14.25-48.25,8.42-10.63,18.18-17.25,31.31-15.53Z"/>
        <path class="st3" d="M65.3,190.28c3.09,13.07-6.29,6.56-8.19,8.67-2.78,3.08,5.19,17.22-10.25,17.12-25.63-.16,11.94-32.44,18.45-25.8Z"/>
        <path class="st12" d="M443.01,460.04c-4.28,3.28.45,10.93.04,11.32-.79.75-15.39,3.33-20.97,6.08-19.16,9.45-26.42,16.8-47.22,22.36,20.67-16.5,45.49-26.71,68.15-39.76Z"/>
        <path class="st3" d="M42.58,187.41c-3,3.24-17.41-11.25-14.17-14.17,5.08-4.58,18.74,9.24,14.17,14.17Z"/>
        <path class="st3" d="M42.61,164.69v-14.17c11.65-.25,11.65,14.42,0,14.17Z"/>
        <rect class="st3" x="53.97" y="164.72" width="5.65" height="8.49"/>
        <rect class="st3" x="8.53" y="71.01" width="5.65" height="8.49"/>
        <path class="st3" d="M17.02,159.04c3.1,3.1-2.55,8.75-5.65,5.65s2.55-8.75,5.65-5.65Z"/>
        <path class="st3" d="M0,48.28V0h704.27v567.96h-323.73c-1.37-12.77,25.74-16.84,28.1-20.2,1.7-2.43-5.72-24.52,4.69-27.95,14.76-4.86,4.96,15.16,8.18,19.88,1.84,2.69,17.26,6.93,18.65,5.55.98-7.99-8.16-25.58-4.31-31.23,1.16-1.7,5.61-1.94,6.56-3.46,4.6-7.41-7.68-13.3,17.64-10.75-12.23-22.07,18.62-18.97,22.56-22.84,3.38-3.32-2.92-17.39-2.73-20.95.05-.95,10.63-4.37,5.76-15.84,10.13,6.16,15.43-4.85,17.02-14.18,1.92-.99,3.73-1.89,5.68-2.84,10.41,1.5,18.58-.16,22.7-8.49-2.78.14-5.74-.37-8.5-.03v-99.39c14.44,1.84,13.94-13.01,0-11.36-6.79.8-12.9,5.1-18.95,8.04-48.81,23.7-95.15,56.58-140.08,85.67-1.2.77-10.12.35-11.36,2.84-.86-3.1-3.36-4.04-5.68-5.68-29.24-20.74-79.35-50.09-110.75-68.15-4.99-8.11-.67-3.81,3.73-4.04,16.67-.85,23.87-2.73,37.43,9.73,4.35,3.99,9.23,15.02,14.25,17,7.59,3,1.46-16.35,11.28-14.16,4.53,7.8,12.56,9,18.36,13.04,3.3,2.3,1.89,9.2,7.2,6.8,3.75-1.69,3.22-8.34,5.08-10.52,2.21-2.59,8.74-2.88,12.17-6.31,7.98-7.96,5.73-21.3,26.8-17.21,3.18,9.05-4.39,15.04-5.73,21.25-2.35,10.95,17.63-4.31,22.58-1.55,5.27-5.26-7.27-27.9-11.79-30.44-7.66-4.31-19.85,5.17-16.42-17.67,4.26-.68,7.93-5.73,11.33-6.82,2.91-.93,7.88,1.84,8.5,1.13,1.36-1.58-2.69-11.97,11.41-11.35l-1.45,11.3c12.96-4.77,3.95-6.78,4.29-11.3.61-8.25,18.76-12.9,25.56-14.2,23.56-4.48,14.04,2.44,24.76,8.62,16.17,9.32,31.51,13.41,49.84,7.76,3.83-1.18,5.75-5.54,9.85-7.27,3.4-1.43,9.63.49,11.76-1.02,1.4-.99-.08-4.26.34-5.24,1.54-3.54,2.3-3.54,2.84-8.52.4-3.69-.15-7.62,0-11.36,8.04,1.14,8.04-3.98,0-2.84.67-22.67,1.1-48.45,0-70.99,8.74,2.78,6.47-10.23,4.38-17.27-2.78-9.33-7.79-4.02-10.05-5.45-12.69-8.01-22.8-9.86-34.08-17.04-30.48-19.4-75.87-56.18-110.75-65.31,2.17-7.29-5.63-8.46-8.52-2.84-2.26,4.4,3.56,7.36-11.35,5.7l-2.82-11.37c-.15,6.6.1,13.26-.03,19.86-4.7,2.95-2.84,10.78-2.89,15.58-.2,18.92-.23,37.96,0,56.88.06,4.8-1.82,12.63,2.89,15.58-.08.94.13,1.92,0,2.84-10.82.11-13.88,10.87-24.06,17.12-17.12,10.51-38.25,17.51-55.6,29.67-4.53,3.18-7.34.95-5.53,10.01l-20.91,6.08-35.89,25.16c-3.52-.53-7.7.36-11.36,0-.62-29.81,2.55-63.63.21-92.63-.45-5.51-2.27-6.72-3.05-9.6-.52-1.94,1.34-5.65-.58-7.84-.54-.61-14.14-6.43-14.95-6.47-2.6-.15-2.35,7.79-5.86,8.65-4.45,1.09-11.39-7.89-16.92-8.59-7.97-1.02-2.63,7.03-4.34,8.53-2.71,2.38-15.35-3.81-16.8-2.72-9.36,7.03,3.87,40.17-24.79,41.45-4.16.19-8.11-2.05-12.31-1.76,3.01,13.56-3.92,18.86-17.04,19.86.69-7.5,8.07-11.18,5.65-19.85l-11.32,2.82c-.22-7.46,4.81-16.29,2.98-23.66-1.32-5.31-14.05-.13-11.61-11.77s9.74-2.9,14.3-5.55c3.14-1.82,3.86-9.07,2.81-10.11-4.19-4.18-16.49,7.77-23.65,5.41-5.02-1.66-8.15-15.61-14.63-13.93-5.59,1.46-.92,14.05-9.94,11.34-2.87-13.08-15.51-35.7,5.65-31.25-1.38-9.06-4.85-17.95-5.79-27.12-.66-6.51,3.06-13,1.72-18.39-3.28-13.21-10.89-4.69-16.67-6.02-4.34-1-8.26-10.53-16.19-8.09ZM278.28,90.89c-1.46-1.37-32.76,13.68-36.71,15.92-2.07,1.17-2.69,5.41-5.06,6.88-9,5.58-25.89,8.3-29.19,22.6l53.77-27.13c2.76-1.74,21.65-14.08,17.19-18.27ZM403.23,352.12c2.62-2.43-6.07-13.28-11.33-11.33-1.29,8.87,2.74,12.61,11.33,11.33ZM479.91,511.18c-3.1-3.1-8.75,2.55-5.65,5.65,3.1,3.1,8.75-2.55,5.65-5.65Z"/>
        <path class="st8" d="M193.11,332.25c-10.99,1.87-5.08-12.64-2.84-19.88,4.93,3.87,2.78,13.66,2.84,19.88Z"/>
        <path class="st8" d="M198.78,414.61c5.81,1.51,13.1,1.11,11.36,8.52-2.73-1.15-6.46-.84-9.43-2.69-2.6-1.62-1.56-5.41-1.93-5.83Z"/>
        <path class="st8" d="M283.98,465.72c-2.15-.65-7.49.85-8.51-.02-.73-.62.62-5.02,0-5.66,4.06.24,7.31,1.6,8.52,5.68Z"/>
        <path class="st8" d="M218.66,425.97c5.4-.93,6.64.26,5.68,5.68-10.34-3.7-2.91-2.27-5.68-5.68Z"/>
      </g>
    </g>
    <g>
      <path class="st2" d="M337.65,12.55l-187.96,110.1c-1.05.62-1.7,1.74-1.7,2.96v125.5c0,2.61,2.79,4.26,5.08,3.01l187.96-102.95c1.1-.6,1.78-1.76,1.78-3.01V15.51c0-2.65-2.88-4.3-5.16-2.96Z"/>
      <path class="st7" d="M364.95,12.55l187.96,110.1c1.05.62,1.7,1.74,1.7,2.96v125.5c0,2.61-2.79,4.26-5.08,3.01l-187.96-102.95c-1.1-.6-1.78-1.76-1.78-3.01V15.51c0-2.65,2.88-4.3,5.16-2.96Z"/>
      <path class="st4" d="M337.65,550.56l-187.96-110.1c-1.05-.62-1.7-1.74-1.7-2.96v-125.5c0-2.61,2.79-4.26,5.08-3.01l187.96,102.95c1.1.6,1.78,1.76,1.78,3.01v132.64c0,2.65-2.88,4.3-5.16,2.96Z"/>
      <path class="st7" d="M364.95,550.56l187.96-110.1c1.05-.62,1.7-1.74,1.7-2.96v-125.5c0-2.61-2.79-4.26-5.08-3.01l-187.96,102.95c-1.1.6-1.78,1.76-1.78,3.01v132.64c0,2.65,2.88,4.3,5.16,2.96Z"/>
      <path class="st7" d="M472.47,236.71l-119.59-65.12c-1.03-.56-2.26-.56-3.29,0l-84.54,46.3c-2.27,1.24-2.4,4.45-.24,5.87l113,74.66c1.11.73,2.55.76,3.68.06l91.13-55.84c2.25-1.38,2.17-4.68-.15-5.94Z"/>
    </g>
  </g>
</svg>